<?xml version="1.0" encoding="utf-8"?>
<!-- Generator: Adobe Illustrator 22.0.1, SVG Export Plug-In . SVG Version: 6.00 Build 0)  -->
<svg version="1.1" id="Слой_1" xmlns="http://www.w3.org/2000/svg" xmlns:xlink="http://www.w3.org/1999/xlink" x="0px" y="0px"
	 viewBox="0 0 143 95" style="enable-background:new 0 0 143 95;" xml:space="preserve">
<style type="text/css">
	.st0{fill:#DCDB67;}
	.st1{fill:none;}
	.st2{fill:#F2C900;}
</style>
<g>
	<g id="Rectangle-5">
		<path id="path-1_1_" class="st0" d="M10,0h123c5.5,0,10,4.5,10,10v75c0,5.5-4.5,10-10,10H10C4.5,95,0,90.5,0,85V10
			C0,4.5,4.5,0,10,0z"/>
	</g>
</g>
<g id="market_24">
	<polygon id="Bounds_1_" class="st1" points="0,6.5 104,6.5 104,102 0,102 	"/>
</g>
<g>
	<g>
		<g>
			<path class="st2" d="M87.2,83.4v-2.5c0-0.7-0.6-1.2-1.2-1.2V67c0.7,0,1.2-0.6,1.2-1.2V63c1.7-0.8,3.2-3,3.2-4.7c0,0,0,0,0,0
				c0,0,0,0,0-0.1c0,0,0,0,0,0c0,0,0,0,0-0.1c0,0,0,0,0-0.1c0,0,0,0,0,0c0-0.1,0-0.1-0.1-0.2c0,0,0-0.1,0-0.1c0,0,0,0,0,0
				c0,0,0,0,0-0.1c0,0,0,0,0,0c0,0,0,0,0,0c0,0,0,0,0-0.1c0,0,0,0,0,0c0,0,0,0-0.1-0.1c0,0,0,0,0,0L64.6,32.6
				c-0.2-0.2-0.5-0.4-0.9-0.4h-1.2v-1.2c0-2.1-1.7-3.7-3.7-3.7c-2.1,0-3.7,1.7-3.7,3.7v1.2h-1.2c-0.3,0-0.6,0.1-0.9,0.4L27.4,57.4
				c0,0,0,0,0,0c0,0,0,0-0.1,0.1c0,0,0,0,0,0c0,0,0,0,0,0c0,0,0,0,0,0c0,0,0,0,0,0c0,0.1-0.1,0.1-0.1,0.2c0,0,0,0.1,0,0.1
				c0,0,0,0,0,0c0,0,0,0,0,0.1c0,0,0,0,0,0c0,0,0,0,0,0.1c0,0,0,0,0,0.1c0,0,0,0,0,0c0,0,0,0,0,0.1c0,0,0,0,0,0
				c0,1.4,1.5,3.8,3.2,4.6v2.8c0,0.7,0.6,1.2,1.2,1.2v12.6c-0.7,0-1.2,0.6-1.2,1.2v2.5c-1.8,0.2-3.2,1.8-3.2,3.7v2.5
				c0,0.7,0.6,1.2,1.2,1.2h61c0.7,0,1.2-0.6,1.2-1.2v-2.5C90.5,85.2,89.1,83.6,87.2,83.4z M57.5,31.1c0-0.7,0.6-1.2,1.2-1.2
				c0.7,0,1.2,0.6,1.2,1.2v1.2h-2.5V31.1z M33.9,54.6h5.8c0.7,0,1.2-0.6,1.2-1.2s-0.6-1.2-1.2-1.2h-3.3l17.8-17.3h2h5h2L81,52.1
				h-3.3c-0.7,0-1.2,0.6-1.2,1.2s0.6,1.2,1.2,1.2h5.8l2.6,2.5H31.3L33.9,54.6z M30.3,59.8c-0.1-0.1-0.1-0.2-0.2-0.2h57.4
				c-0.1,0.1-0.2,0.2-0.3,0.4c-0.6,0.7-1,0.9-1.2,0.9h-9.9H63.7h-9.9H41.4h-9.9C31.3,60.8,30.8,60.5,30.3,59.8z M83.5,79.6h-5V67h5
				L83.5,79.6L83.5,79.6z M84.8,82.1v1.2h-7.4v-1.2H84.8z M77.3,64.5v-1.2h7.4v1.2H77.3z M63.7,79.6V67c0.7,0,1.2-0.6,1.2-1.2v-2.5
				h9.9v2.5c0,0.7,0.6,1.2,1.2,1.2h0v12.6h0c-0.7,0-1.2,0.6-1.2,1.2v2.5h-9.9v-2.5C64.9,80.2,64.4,79.6,63.7,79.6z M62.4,82.1v1.2
				H55v-1.2H62.4z M56.2,79.6V67h5v12.6H56.2z M55,64.5v-1.2h7.4v1.2H55z M41.4,79.6L41.4,79.6l0-12.6h0c0.7,0,1.2-0.6,1.2-1.2v-2.5
				h9.9v2.5c0,0.7,0.6,1.2,1.2,1.2h0v12.6h0c-0.7,0-1.2,0.6-1.2,1.2v2.5h-9.9v-2.5C42.6,80.2,42.1,79.6,41.4,79.6z M40.1,82.1v1.2
				h-7.4v-1.2H40.1z M33.9,79.6V67h5v12.6H33.9z M32.7,64.5v-1.2h7.4v1.2H32.7z M88,88.3L88,88.3H29.5v-1.2c0-0.7,0.6-1.2,1.2-1.2
				h0.7h9.9h12.4h9.9h12.4H86h0.7c0.7,0,1.2,0.6,1.2,1.2L88,88.3L88,88.3z"/>
			<path class="st2" d="M63.7,42.2c0.7,0,1.2-0.6,1.2-1.2s-0.6-1.2-1.2-1.2H60v-1.2c0-0.7-0.6-1.2-1.2-1.2c-0.7,0-1.2,0.6-1.2,1.2
				v1.2h-1.2c-2.1,0-3.7,1.7-3.7,3.7c0,2.1,1.7,3.7,3.7,3.7h1.2v2.5h-3.7c-0.7,0-1.2,0.6-1.2,1.2s0.6,1.2,1.2,1.2h3.7v1.2
				c0,0.7,0.6,1.2,1.2,1.2c0.7,0,1.2-0.6,1.2-1.2v-1.2h1.2c2.1,0,3.7-1.7,3.7-3.7c0-2.1-1.7-3.7-3.7-3.7H60v-2.5H63.7L63.7,42.2z
				 M57.5,44.7h-1.2c-0.7,0-1.2-0.6-1.2-1.2c0-0.7,0.6-1.2,1.2-1.2h1.2V44.7z M61.2,47.2c0.7,0,1.2,0.6,1.2,1.2
				c0,0.7-0.6,1.2-1.2,1.2H60v-2.5H61.2z"/>
			<path class="st2" d="M43.3,52.1L43.3,52.1c-0.7,0-1.3,0.6-1.3,1.2s0.6,1.2,1.2,1.2h0c0.7,0,1.2-0.6,1.2-1.2S44,52.1,43.3,52.1z"
				/>
			<path class="st2" d="M74.2,52.1L74.2,52.1c-0.7,0-1.3,0.6-1.3,1.2s0.6,1.2,1.2,1.2h0c0.7,0,1.2-0.6,1.2-1.2S74.9,52.1,74.2,52.1z
				"/>
		</g>
	</g>
</g>
</svg>
