<?xml version="1.0" encoding="utf-8"?>
<!-- Generator: Adobe Illustrator 22.0.1, SVG Export Plug-In . SVG Version: 6.00 Build 0)  -->
<svg version="1.1" id="Слой_1" xmlns="http://www.w3.org/2000/svg" xmlns:xlink="http://www.w3.org/1999/xlink" x="0px" y="0px"
	 viewBox="0 0 143 95" style="enable-background:new 0 0 143 95;" xml:space="preserve">
<style type="text/css">
	.st0{fill:#F67C6F;}
	.st1{fill:none;}
	.st2{fill:#FF4748;}
	.st3{opacity:0.3;}
</style>
<g>
	<g id="Rectangle-5">
		<path id="path-1_1_" class="st0" d="M10,0h123c5.5,0,10,4.5,10,10v75c0,5.5-4.5,10-10,10H10C4.5,95,0,90.5,0,85V10
			C0,4.5,4.5,0,10,0z"/>
	</g>
</g>
<g id="market_24">
	<polygon id="Bounds_1_" class="st1" points="0,6.5 104,6.5 104,102 0,102 	"/>
</g>
<g>
	<path class="st2" d="M71.1,46.8c-2.6-2.3-4.1-5.6-4.1-8.9v-5.5c0-3.9-2.8-7.1-6.4-7.8V9.4H58v15.2c-3.7,0.5-6.7,3.8-6.7,7.8V38
		c0,3.4-1.4,6.5-3.8,8.7c-4.1,3.7-6.3,9-5.8,14.6c0.7,8.7,7.8,15.8,16.6,16.4c0.4,0,0.8,0.1,1.2,0.1l0,0c4.7,0,9.2-1.8,12.5-5.2
		C75.2,69.2,77,64.7,77,60C77,54.9,74.8,50.1,71.1,46.8z M53.9,32.4c0-2.9,2.4-5.3,5.3-5.3s5.3,2.4,5.3,5.3v5.3H53.9
		C53.9,37.6,53.9,32.4,53.9,32.4z M70,70.7c-2.9,2.8-6.7,4.4-10.7,4.4l0,0c-0.3,0-0.7,0-1,0c-7.5-0.5-13.5-6.4-14.1-13.9
		c-0.3-4.7,1.4-9.3,5-12.4c2.4-2.2,4-5.2,4.5-8.4H58v15.1h-4.5v2.6H65v-2.6h-4.4V40.3h4.1c0.6,3.2,2.2,6.2,4.7,8.5
		c3.2,2.8,5,7,5,11.2C74.4,64,72.8,67.8,70,70.7z"/>
	<g class="st3">
		<g>
			<rect x="29.8" y="59.9" class="st2" width="6.6" height="2.6"/>
		</g>
		<g>
			
				<rect x="37.4" y="78.5" transform="matrix(0.7071 -0.7071 0.7071 0.7071 -44.5192 52.1738)" class="st2" width="6.6" height="2.6"/>
		</g>
		<g>
			<rect x="58" y="84.2" class="st2" width="2.6" height="6.6"/>
		</g>
		<g>
			
				<rect x="76.5" y="76.5" transform="matrix(0.7072 -0.7071 0.7071 0.7072 -33.6443 78.3694)" class="st2" width="2.6" height="6.6"/>
		</g>
		<g>
			<rect x="82.2" y="59.9" class="st2" width="6.6" height="2.6"/>
		</g>
		<g>
			
				<rect x="74.5" y="41.4" transform="matrix(0.7071 -0.7071 0.7071 0.7071 -7.391 67.5155)" class="st2" width="6.6" height="2.6"/>
		</g>
		<g>
			
				<rect x="39.4" y="39.4" transform="matrix(0.7071 -0.7071 0.7071 0.7071 -18.2705 41.3146)" class="st2" width="2.6" height="6.6"/>
		</g>
	</g>
</g>
</svg>
