<?xml version="1.0" encoding="utf-8"?>
<!-- Generator: Adobe Illustrator 22.0.1, SVG Export Plug-In . SVG Version: 6.00 Build 0)  -->
<svg version="1.1" id="Слой_1" xmlns="http://www.w3.org/2000/svg" xmlns:xlink="http://www.w3.org/1999/xlink" x="0px" y="0px"
	 viewBox="0 0 143 95" style="enable-background:new 0 0 143 95;" xml:space="preserve">
<style type="text/css">
	.st0{fill:#8AC176;}
	.st1{fill:none;}
	.st2{fill:#83B770;}
</style>
<g>
	<g id="Rectangle-5">
		<path id="path-1_1_" class="st0" d="M10,0h123c5.5,0,10,4.5,10,10v75c0,5.5-4.5,10-10,10H10C4.5,95,0,90.5,0,85V10
			C0,4.5,4.5,0,10,0z"/>
	</g>
	<g id="Page-2">
		<g id="user_24">
			<polygon id="Bounds" class="st1" points="0,6.5 104,6.5 104,110.5 0,110.5 			"/>
			<path id="Mask" class="st2" d="M69.3,41.1c0-9.6-7.8-17.3-17.3-17.3s-17.3,7.8-17.3,17.3S42.4,58.5,52,58.5S69.3,50.7,69.3,41.1z
				 M17.3,84.5v4.3c0,2.4,1.9,4.4,4.4,4.4h60.6c2.4,0,4.4-1.9,4.4-4.4v-4.3C86.7,69.3,63.6,65,52,65S17.3,69.3,17.3,84.5z"/>
		</g>
	</g>
</g>
</svg>
