<?xml version="1.0" encoding="UTF-8" standalone="no"?>
<svg
   xmlns:dc="http://purl.org/dc/elements/1.1/"
   xmlns:cc="http://creativecommons.org/ns#"
   xmlns:rdf="http://www.w3.org/1999/02/22-rdf-syntax-ns#"
   xmlns:svg="http://www.w3.org/2000/svg"
   xmlns="http://www.w3.org/2000/svg"
   height="37.800049"
   width="32.400002"
   xml:space="preserve"
   viewBox="0 0 32.400002 37.800049"
   y="0px"
   x="0px"
   id="Слой_1"
   version="1.1"><metadata
   id="metadata8"><rdf:RDF><cc:Work
       rdf:about=""><dc:format>image/svg+xml</dc:format><dc:type
         rdf:resource="http://purl.org/dc/dcmitype/StillImage" /></cc:Work></rdf:RDF></metadata><defs
   id="defs6" />
<path
   d="m 16.1,0 c -4.5,0 -8.2,3.9 -8.2,8.7 0,3.6 2,6.6 4.9,7.9 1.2,1.3 2.3,3.1 2.9,5.6 C 14.4,19.1 11.6,17 8.2,17 3.7,17 0,20.9 0,25.7 c 0,4.8 3.7,8.7 8.2,8.7 3.4,0 6.3,-2.2 7.5,-5.3 C 13.6,37.9 6,37.8 6,37.8 h 20.4 c 0,0 -7.4,0 -9.6,-8.4 1.3,2.9 4.1,4.9 7.4,4.9 4.5,0 8.2,-3.9 8.2,-8.7 0,-4.8 -3.7,-8.7 -8.2,-8.7 -3.2,0 -6,2 -7.4,4.9 0.7,-2.6 1.9,-4.4 3.3,-5.7 0,0 0,0 0,0 2.5,-1.5 4.1,-4.3 4.1,-7.5 C 24.3,3.8 20.6,0 16.1,0 Z"
   id="path7337" />
</svg>