<?xml version="1.0" encoding="utf-8"?>
<!-- Generator: Adobe Illustrator 22.0.1, SVG Export Plug-In . SVG Version: 6.00 Build 0)  -->
<svg version="1.1" id="Слой_1" xmlns="http://www.w3.org/2000/svg" xmlns:xlink="http://www.w3.org/1999/xlink" x="0px" y="0px"
	 viewBox="0 0 143 95" style="enable-background:new 0 0 143 95;" xml:space="preserve">
<style type="text/css">
	.st0{fill:#AF6FDF;}
	.st1{fill:none;}
	.st2{fill:#8D47EE;}
</style>
<g>
	<g id="Rectangle-5">
		<path id="path-1_1_" class="st0" d="M10,0h123c5.5,0,10,4.5,10,10v75c0,5.5-4.5,10-10,10H10C4.5,95,0,90.5,0,85V10
			C0,4.5,4.5,0,10,0z"/>
	</g>
</g>
<g id="market_24">
	<polygon id="Bounds_1_" class="st1" points="0,6.5 104,6.5 104,102 0,102 	"/>
</g>
<g>
	<g id="Game_Pad">
		<g>
			<path class="st2" d="M98.1,56.1C94.1,37.4,88.3,32.8,84.8,31c-5.6-3-12.1-1.2-14.3-0.1c-2.5,1.3-4.1,3.7-6.6,4.7
				c-2.9,1.2-6.8,1.5-9.7,0.1c-2.3-1.2-4.4-3.6-7.3-4.7c-3.6-1.4-9.6-3.3-15.6,0.9c-1.4,1-11.4,9.4-14.4,35.7
				c-1.9,16.2,7,21.4,6.7,21.2c2.3,1.6,7.4,4.4,14.3,0.1c4.6-2.9,8.4-8.6,8.4-8.6s1.7-3.2,3.9-4.5c1.6-1,3.9-0.2,3.9-0.2h8.3
				c0,0,2.6-0.3,4.5,0.5c1.8,0.8,2.8,2.7,2.8,2.7s5.5,7.1,10.8,10.7c2.2,1.5,11.2,3.3,15.9-2.4C99.5,83.2,101.5,71.8,98.1,56.1z
				 M53.6,54.5c0,1.4-1.1,2.6-2.5,2.6h-6.3v6.4c0,1.4-1.1,2.6-2.5,2.6h-1.9c-1.4,0-2.5-1.2-2.5-2.6v-6.4h-6.3
				c-1.4,0-2.5-1.1-2.5-2.6v-1.9c0-1.4,1.1-2.6,2.5-2.6h6.3v-6.4c0-1.4,1.1-2.6,2.5-2.6h1.9c1.4,0,2.5,1.2,2.5,2.6V50h6.3
				c1.4,0,2.5,1.2,2.5,2.6L53.6,54.5L53.6,54.5z M71.4,63.5c-2.6,0-4.7-2.2-4.7-4.8c0-2.7,2.1-4.8,4.7-4.8c2.6,0,4.7,2.2,4.7,4.8
				C76.1,61.3,74,63.5,71.4,63.5z M80.1,52.8c-2.6,0-4.7-2.1-4.7-4.8c0-2.6,2.1-4.8,4.7-4.8c2.6,0,4.7,2.1,4.7,4.8
				C84.8,50.6,82.7,52.8,80.1,52.8z"/>
		</g>
	</g>
</g>
</svg>
