<?xml version="1.0" encoding="utf-8"?>
<!-- Generator: Adobe Illustrator 22.0.1, SVG Export Plug-In . SVG Version: 6.00 Build 0)  -->
<svg version="1.1" id="Слой_1" xmlns="http://www.w3.org/2000/svg" xmlns:xlink="http://www.w3.org/1999/xlink" x="0px" y="0px"
	 viewBox="0 0 143 95" style="enable-background:new 0 0 143 95;" xml:space="preserve">
<style type="text/css">
	.st0{fill:#75B4E7;}
	.st1{fill:none;}
	.st2{fill:#00A1E7;}
</style>
<g>
	<g id="Rectangle-5">
		<path id="path-1_1_" class="st0" d="M10,0h123c5.5,0,10,4.5,10,10v75c0,5.5-4.5,10-10,10H10C4.5,95,0,90.5,0,85V10
			C0,4.5,4.5,0,10,0z"/>
	</g>
</g>
<g id="market_24">
	<polygon id="Bounds_1_" class="st1" points="0,6.5 104,6.5 104,102 0,102 	"/>
</g>
<g>
	<path id="i-414" class="st2" d="M55.4,47.5h-6.7v-6.7h6.7V47.5z M55.4,30.7h-6.7v6.7h6.7V30.7z M65.5,60.9h-6.7v6.7h6.7V60.9z
		 M65.5,30.7h-6.7v6.7h6.7V30.7z M65.5,50.9h-6.7v6.7h6.7V50.9z M65.5,20.7h-6.7v6.7h6.7V20.7z M65.5,40.8h-6.7v6.7h6.7V40.8z
		 M55.4,20.7h-6.7v6.7h6.7V20.7z M45.3,40.8h-6.7v6.7h6.7V40.8z M45.3,60.9h-6.7v6.7h6.7V60.9z M45.3,50.9h-6.7v6.7h6.7V50.9z
		 M72.5,17.3v70.4h4.7v3.4h-4.7H60.4H43.7H31.6h-4.7v-3.4h4.7V17.3h-4.7V14h4.7h4.7v-3.4h31.5V14h4.7h4.7v3.4H72.5z M57.1,79.4
		c0-2.8-2.3-5-5-5s-5,2.3-5,5v8.4h10.1V79.4z M69.2,17.3H34.9v70.4h8.7v-8.4c0-4.6,3.8-8.4,8.4-8.4s8.4,3.8,8.4,8.4v8.4h8.7V17.3z
		 M55.4,60.9h-6.7v6.7h6.7V60.9z M55.4,50.9h-6.7v6.7h6.7V50.9z M45.3,30.7h-6.7v6.7h6.7V30.7z M45.3,20.7h-6.7v6.7h6.7V20.7z"/>
</g>
<g>
	<g>
		<g>
			<path d="M166.5,200.2v-2c0-0.5-0.4-1-1-1v-10c0.5,0,1-0.4,1-1v-2.2c1.4-0.6,2.5-2.4,2.5-3.7c0,0,0,0,0,0c0,0,0,0,0-0.1
				c0,0,0,0,0,0c0,0,0,0,0-0.1c0,0,0,0,0,0c0,0,0,0,0,0c0-0.1,0-0.1,0-0.1c0,0,0-0.1,0-0.1c0,0,0,0,0,0c0,0,0,0,0-0.1c0,0,0,0,0,0
				c0,0,0,0,0,0c0,0,0,0,0,0c0,0,0,0,0,0c0,0,0,0,0,0c0,0,0,0,0,0l-20.1-19.5c-0.2-0.2-0.4-0.3-0.7-0.3h-1v-1c0-1.6-1.3-2.9-2.9-2.9
				c-1.6,0-2.9,1.3-2.9,2.9v1h-1c-0.3,0-0.5,0.1-0.7,0.3l-20.1,19.5c0,0,0,0,0,0c0,0,0,0,0,0c0,0,0,0,0,0c0,0,0,0,0,0c0,0,0,0,0,0
				c0,0,0,0,0,0c0,0-0.1,0.1-0.1,0.1c0,0,0,0,0,0.1c0,0,0,0,0,0c0,0,0,0,0,0.1c0,0,0,0,0,0c0,0,0,0,0,0c0,0,0,0,0,0.1c0,0,0,0,0,0
				c0,0,0,0,0,0.1c0,0,0,0,0,0c0,1.1,1.2,3,2.5,3.7v2.2c0,0.5,0.4,1,1,1v10c-0.5,0-1,0.4-1,1v2c-1.4,0.2-2.5,1.4-2.5,2.9v2
				c0,0.5,0.4,1,1,1h48c0.5,0,1-0.4,1-1v-2C169,201.6,167.9,200.4,166.5,200.2z M143,158.9c0-0.5,0.4-1,1-1c0.5,0,1,0.4,1,1v1h-2
				V158.9z M124.4,177.5h4.6c0.5,0,1-0.4,1-1c0-0.5-0.4-1-1-1h-2.6l14.1-13.6h1.6h3.9h1.6l14.1,13.6H159c-0.5,0-1,0.4-1,1
				c0,0.5,0.4,1,1,1h4.6l2,2h-43.2L124.4,177.5z M121.6,181.6c0-0.1-0.1-0.1-0.1-0.2h45.2c-0.1,0.1-0.1,0.2-0.2,0.3
				c-0.4,0.5-0.8,0.7-0.9,0.7h-7.8h-9.8h-7.8h-9.8h-7.8C122.4,182.3,122,182.1,121.6,181.6z M163.5,197.2h-3.9v-10h3.9V197.2
				L163.5,197.2z M164.5,199.2v1h-5.9v-1H164.5z M158.6,185.3v-1h5.9v1H158.6z M147.9,197.2v-10c0.5,0,1-0.4,1-1v-2h7.8v2
				c0,0.5,0.4,1,1,1h0v10h0c-0.5,0-1,0.4-1,1v2h-7.8v-2C148.9,197.6,148.4,197.2,147.9,197.2z M146.9,199.2v1h-5.9v-1H146.9z
				 M142,197.2v-10h3.9v10H142z M141.1,185.3v-1h5.9v1H141.1z M130.3,197.2L130.3,197.2l0-10h0c0.5,0,1-0.4,1-1v-2h7.8v2
				c0,0.5,0.4,1,1,1h0v10h0c-0.5,0-1,0.4-1,1v2h-7.8v-2C131.3,197.6,130.9,197.2,130.3,197.2z M129.4,199.2v1h-5.9v-1H129.4z
				 M124.5,197.2v-10h3.9v10H124.5z M123.5,185.3v-1h5.9v1H123.5z M167,204L167,204H121v-1c0-0.5,0.4-1,1-1h0.6h7.8h9.8h7.8h9.8h7.8
				h0.6c0.5,0,1,0.4,1,1V204L167,204z"/>
			<path d="M147.9,167.7c0.5,0,1-0.4,1-1c0-0.5-0.4-1-1-1H145v-0.9c0-0.5-0.4-1-1-1c-0.5,0-1,0.4-1,1v0.9h-1c-1.6,0-2.9,1.3-2.9,2.9
				c0,1.6,1.3,2.9,2.9,2.9h1v2h-2.9c-0.5,0-1,0.4-1,1c0,0.5,0.4,1,1,1h2.9v0.9c0,0.5,0.4,1,1,1c0.5,0,1-0.4,1-1v-0.9h1
				c1.6,0,2.9-1.3,2.9-2.9c0-1.6-1.3-2.9-2.9-2.9h-1v-2H147.9L147.9,167.7z M143,169.7h-1c-0.5,0-1-0.4-1-1c0-0.5,0.4-1,1-1h1V169.7
				z M146,171.6c0.5,0,1,0.4,1,1c0,0.5-0.4,1-1,1h-1v-2H146z"/>
			<path d="M131.8,175.5L131.8,175.5c-0.6,0-1,0.4-1,1c0,0.5,0.4,1,1,1h0c0.5,0,1-0.4,1-1C132.8,175.9,132.4,175.5,131.8,175.5z"/>
			<path d="M156.2,175.5L156.2,175.5c-0.6,0-1,0.4-1,1c0,0.5,0.4,1,1,1h0c0.5,0,1-0.4,1-1C157.2,175.9,156.7,175.5,156.2,175.5z"/>
		</g>
	</g>
</g>
</svg>
