<?xml version="1.0" encoding="utf-8"?>
<!-- Generator: Adobe Illustrator 22.0.1, SVG Export Plug-In . SVG Version: 6.00 Build 0)  -->
<svg version="1.1" id="Слой_1" xmlns="http://www.w3.org/2000/svg" xmlns:xlink="http://www.w3.org/1999/xlink" x="0px" y="0px"
	 viewBox="0 0 143 95" style="enable-background:new 0 0 143 95;" xml:space="preserve">
<style type="text/css">
	.st0{fill:#E7E075;}
	.st1{fill:none;}
	.st2{fill:#DBD56F;}
</style>
<g>
	<g id="Rectangle-5">
		<path id="path-1_1_" class="st0" d="M10,0h123c5.5,0,10,4.5,10,10v75c0,5.5-4.5,10-10,10H10C4.5,95,0,90.5,0,85V10
			C0,4.5,4.5,0,10,0z"/>
	</g>
</g>
<g id="market_24">
	<polygon id="Bounds_1_" class="st1" points="0,6.5 104,6.5 104,102 0,102 	"/>
	<path id="Mask_1_" class="st2" d="M69.3,38.3h9c2.3,0,4.1,1.6,4.3,3.7l3.3,39.5c0.4,4.4-3.2,8.2-8,8.5c-0.2,0-0.4,0-0.7,0H26.7
		c-4.8,0-8.7-3.6-8.7-8c0-0.2,0-0.4,0-0.6L21.4,42c0.2-2.1,2.1-3.7,4.3-3.7h9v-4c0-8.8,7.8-15.9,17.3-15.9s17.3,7.1,17.3,15.9V38.3z
		 M42.5,38.3h19.1v-4c0-4.8-4.3-8.8-9.5-8.8s-9.5,3.9-9.5,8.8V38.3z"/>
</g>
</svg>
