<?xml version="1.0" encoding="utf-8"?>
<!-- Generator: Adobe Illustrator 22.0.1, SVG Export Plug-In . SVG Version: 6.00 Build 0)  -->
<svg version="1.1" id="Layer_1" xmlns="http://www.w3.org/2000/svg" xmlns:xlink="http://www.w3.org/1999/xlink" x="0px" y="0px"
	 viewBox="0 0 595.3 595.3" style="enable-background:new 0 0 595.3 595.3;" xml:space="preserve">
<style type="text/css">
	.st0{fill:none;}
	.st1{fill:#009444;}
	.st2{fill:#006838;}
</style>
<rect class="st0" width="595.3" height="595.3"/>
<g>
	<g>
		<g>
			<path class="st1" d="M66.3,167.1c0,75.2,0,150.4,0,225.7c147.9,101.1,295.8-68.7,443.7,32.4c0-75.2,0-150.4,0-225.7
				C362.2,98.4,214.3,268.1,66.3,167.1z"/>
		</g>
		<g>
			<path class="st2" d="M485.9,349.3c0-34.2,0-68.3,0-102.5c-20.7-10.2-37.4-30.3-37.4-51.1c-106.8-26.2-213.7,49.6-320.5,23.4
				c0,20.5-16.7,33.9-37.4,23.7c0,34.2,0,68.3,0,102.5c20.7,10.2,37.4,30.3,37.4,51.1c106.8,26.2,213.7-49.6,320.5-23.4
				C448.5,352.5,465.2,339.1,485.9,349.3z"/>
		</g>
		<g>
			<g>
				<path class="st1" d="M352.9,282.7c0,41.7-29,80.6-64.7,89.2c-35.7,8.7-64.7-20.5-64.7-62.6c0-41.7,29-80.6,64.7-89.2
					C323.9,211.5,352.9,240.6,352.9,282.7z"/>
			</g>
		</g>
		<g>
			<g>
				<path class="st1" d="M288.2,379.2c-39.2,9.6-71.1-22.8-71.1-68.9c0-45.6,31.9-87.8,71.1-97.4c39.2-9.6,71.1,22.8,71.1,68.9
					C359.3,327.4,327.4,369.6,288.2,379.2z M288.2,216.3c-37.3,9.1-67.7,49.8-67.7,93.5c0,44.2,30.4,75.1,67.7,66
					s67.7-49.8,67.7-93.5C355.9,238.1,325.5,207.2,288.2,216.3z"/>
			</g>
		</g>
		<g>
			<g>
				<path class="st2" d="M321.1,294.9c-1.6-2.7-3.8-4.8-6.7-6.2c-2.8-1.4-6.3-2.3-10.3-2.8c-4.1-0.5-8.6-0.7-13.6-0.7
					c-4-0.1-6.9-0.2-8.6-0.3c-1.7-0.1-3.4-0.5-5.1-1s-3-1.3-4-2.4s-1.5-2.5-1.5-4.3c0-2.9,1.4-5.6,4.3-8.3c2.8-2.7,6.6-4.6,11.2-5.6
					c5-1.2,8.6-1.1,10.9,0.3s4.2,3.5,5.8,6.5c1.2,2.1,2.4,3.5,3.5,4.3s2.6,0.9,4.7,0.5c2.3-0.5,4.1-1.8,5.7-3.8
					c1.5-2,2.3-4.1,2.3-6.3c0-2.3-0.6-4.6-1.8-6.8c-1.2-2.2-3.1-4.1-5.7-5.8s-5.9-2.7-9.9-3.2c-2.5-0.3-5.2-0.2-8.2,0.2
					c0-4.4,0-8.8,0-13.2c-3.8,0.9-7.6,1.8-11.4,2.6c0,4.4,0,8.8,0,13.2c-4.6,1.5-8.7,3.3-12.3,5.6c-5,3.2-8.9,6.9-11.6,11.3
					s-4,9-4,13.9c0,5.1,1.3,9.1,3.8,12s5.9,4.9,10.2,5.9c4.3,1,9.6,1.6,16,1.6c4.8,0,8.6,0.1,11.4,0.4s5.2,1.2,7,2.6
					s2.7,3.6,2.7,6.6c0,3.7-1.7,7.2-5,10.4c-3.3,3.2-7.7,5.5-13,6.7c-3.9,0.9-7,1-9.4,0.3s-4.2-1.8-5.5-3.4s-2.5-3.7-3.7-6.2
					c-0.9-2.2-2-3.7-3.4-4.6c-1.3-0.9-2.9-1.2-4.8-0.8c-2.3,0.5-4.3,1.7-5.8,3.6c-1.5,1.9-2.3,3.9-2.3,6.1c0,3.7,1.3,7.4,3.8,10.8
					c2.5,3.4,5.8,5.9,9.8,7.4c4.4,1.6,9.7,1.9,15.9,1.1c0,4.5,0,9,0,13.5c3.8-0.9,7.6-1.8,11.4-2.6c0-4.5,0-9,0-13.5
					c5-1.6,9.4-3.8,13.3-6.4c5.3-3.6,9.4-7.8,12.1-12.7c2.8-4.9,4.1-10,4.1-15.3C323.4,301.2,322.6,297.6,321.1,294.9z"/>
			</g>
		</g>
		<g>
			<path class="st1" d="M443,283.1c0,14.2-11.5,23.1-25.7,22s-25.7-12-25.7-26.2s11.5-26.3,25.7-25.2S443,268.9,443,283.1z"/>
		</g>
		<g>
			<path class="st1" d="M133.4,309c0,14.2,11.5,28.3,25.7,29.4s25.7-11,25.7-25.2s-11.5-25.1-25.7-26.2
				C144.9,285.9,133.4,294.8,133.4,309z"/>
		</g>
	</g>
	<g>
		<path class="st2" d="M502.3,243c-1.4,0-2.5-1.1-2.5-2.5V206c-19.3-13.4-50.7-22.9-51-23c-1.3-0.4-2.1-1.8-1.7-3.1s1.8-2.1,3.1-1.7
			c1.4,0.4,33.7,10.2,53.5,24.4l1,0.7v37C504.8,241.9,503.6,243,502.3,243z"/>
	</g>
	<g>
		<path class="st2" d="M502.3,362.1c-1.4,0-2.5-1.1-2.5-2.5v-87.5c0-1.4,1.1-2.5,2.5-2.5s2.5,1.1,2.5,2.5v87.5
			C504.8,361,503.6,362.1,502.3,362.1z"/>
	</g>
	<g>
		<path class="st2" d="M504.9,413.8l-3.9-2.6c-0.3-0.2-26.6-17.5-45.6-21.4c-1.4-0.3-2.2-1.6-2-2.9c0.3-1.4,1.6-2.2,2.9-2
			c15.6,3.2,35.2,14.5,43.4,19.6V392c0-1.4,1.1-2.5,2.5-2.5s2.5,1.1,2.5,2.5v21.8H504.9z"/>
	</g>
	<g>
		<path class="st2" d="M339.3,391c-1.2,0-2.2-0.8-2.4-2c-0.3-1.3,0.6-2.7,1.9-3c49.7-10.8,92-4.4,92.4-4.3c1.4,0.2,2.3,1.5,2.1,2.9
			c-0.2,1.4-1.5,2.3-2.9,2.1c-0.4-0.1-41.9-6.3-90.6,4.3C339.6,391,339.5,391,339.3,391z"/>
	</g>
</g>
</svg>
