<?xml version="1.0" encoding="utf-8"?>
<!-- Generator: Adobe Illustrator 22.0.1, SVG Export Plug-In . SVG Version: 6.00 Build 0)  -->
<svg version="1.1" id="Слой_1" xmlns="http://www.w3.org/2000/svg" xmlns:xlink="http://www.w3.org/1999/xlink" x="0px" y="0px"
	 viewBox="0 0 143 95" style="enable-background:new 0 0 143 95;" xml:space="preserve">
<style type="text/css">
	.st0{fill:#EEA06D;}
	.st1{fill:none;}
	.st2{fill:#FF803E;}
</style>
<g>
	<g id="Rectangle-5">
		<path id="path-1_1_" class="st0" d="M10,0h123c5.5,0,10,4.5,10,10v75c0,5.5-4.5,10-10,10H10C4.5,95,0,90.5,0,85V10
			C0,4.5,4.5,0,10,0z"/>
	</g>
</g>
<g id="market_24">
	<polygon id="Bounds_1_" class="st1" points="0,6.5 104,6.5 104,102 0,102 	"/>
</g>
<g>
	<path class="st2" d="M27.5,53.1c0,3.7,2.5,6.8,6,7.7v26.1h-4c-1.1,0-2,0.9-2,2c0,1.1,0.9,2,2,2h59.6c1.1,0,2-0.9,2-2
		c0-1.1-0.9-2-2-2h-4V60.7c3.4-0.9,6-4,6-7.7v-2H27.5V53.1z M67.2,61c4.4,0,7.9-3.6,7.9-7.9c0,3.7,2.5,6.8,6,7.7v26.1H51.3V61
		c4.4,0,7.9-3.6,7.9-7.9C59.3,57.4,62.8,61,67.2,61z M49.3,60.7v26.1H37.4V60.7c3.4-0.9,6-4,6-7.7C43.4,56.8,45.9,59.8,49.3,60.7z
		 M83.1,33.2H35.4l-7.9,15.9H91L83.1,33.2z M44.3,37.6l-4,7.9c-0.2,0.3-0.5,0.6-0.9,0.6c-0.1,0-0.3,0-0.4-0.1
		c-0.5-0.2-0.7-0.8-0.4-1.3l4-7.9c0.2-0.5,0.8-0.7,1.3-0.4C44.3,36.5,44.5,37.1,44.3,37.6z M52.2,37.6l-4,7.9
		c-0.2,0.3-0.5,0.6-0.9,0.6c-0.1,0-0.3,0-0.4-0.1c-0.5-0.2-0.7-0.8-0.4-1.3l4-7.9c0.2-0.5,0.8-0.7,1.3-0.4
		C52.3,36.5,52.5,37.1,52.2,37.6z M60.3,45.1c0,0.6-0.4,1-1,1c-0.5,0-1-0.4-1-1v-7.9c0-0.6,0.4-1,1-1c0.6,0,1,0.4,1,1V45.1z
		 M71.7,46c-0.2,0.1-0.3,0.1-0.5,0.1c-0.3,0-0.7-0.2-0.9-0.5L66,37.7c-0.3-0.5-0.1-1.1,0.4-1.3c0.5-0.3,1.1-0.1,1.3,0.4l4.3,7.9
		C72.3,45.1,72.1,45.7,71.7,46z M79.6,46c-0.1,0.1-0.3,0.1-0.4,0.1c-0.4,0-0.7-0.2-0.9-0.6l-4-7.9c-0.2-0.5,0-1.1,0.4-1.3
		c0.5-0.2,1.1,0,1.3,0.4l4,7.9C80.3,45.2,80.1,45.8,79.6,46z M44.4,75.2v-4.6c-0.6-0.3-1-1-1-1.7c0-1.1,0.9-2,2-2c1.1,0,2,0.9,2,2
		c0,0.7-0.4,1.3-1,1.7v4.6c0.6,0.3,1,1,1,1.7c0,1.1-0.9,2-2,2c-1.1,0-2-0.9-2-2C43.4,76.2,43.8,75.6,44.4,75.2z M35.4,29.2
		c0-1.1,0.9-2,2-2h43.7c1.1,0,2,0.9,2,2c0,1.1-0.9,2-2,2H37.4C36.3,31.2,35.4,30.3,35.4,29.2z M62.3,71.6l-1.4-1.4l5.6-5.6l1.4,1.4
		L62.3,71.6z M62.3,77.3l-1.4-1.4l11.2-11.2l1.4,1.4L62.3,77.3z M72.1,70.2l1.4,1.4l-5.6,5.6l-1.4-1.4L72.1,70.2z"/>
</g>
</svg>
